<svg xmlns="http://www.w3.org/2000/svg" width="600" height="500"><rect width="600" height="500" x="0" y="0" fill="#FFFFFF" id="background"/><g transform="translate(10,10)" id="viz"><g><rect x="57.5" y="281.97509334610254" height="85.19744571033078" width="5" fill="black"><title>information: 20</title></rect><rect x="115" y="303.55614053108746" height="102.23693485239704" width="5" fill="black"><title>visualization: 24</title></rect><rect x="402.5" y="101.54287724304085" height="38.3388505696489" width="5" fill="black"><title>abstract: 9</title></rect><rect x="460" y="75.06747774660245" height="55.378339711715014" width="5" fill="black"><title>datum: 13</title></rect><rect x="287.5" y="53.67312384453664" height="21.29936142758269" width="5" fill="black"><title>visual: 5</title></rect><rect x="345" y="33.689051761152164" height="29.819105998615754" width="5" fill="black"><title>representation: 7</title></rect><rect x="230" y="131.31403710697217" height="17.039489142066117" width="5" fill="black"><title>interactive: 4</title></rect><rect x="172.5" y="201.41705668435992" height="12.779616856549637" width="5" fill="black"><title>use: 3</title></rect><rect x="172.5" y="260.1817600989166" height="21.29936142758271" width="5" fill="black"><title>computer: 5</title></rect><rect x="230" y="281.5507005972873" height="12.779616856549637" width="5" fill="black"><title>graphic: 3</title></rect><rect x="172.5" y="287.73232455971635" height="8.519744571033073" width="5" fill="black"><title>infovis: 2</title></rect><rect x="517.5" y="97.49021517614499" height="8.519744571033058" width="5" fill="black"><title>reinforce: 2</title></rect><rect x="0" y="179.47478001236416" height="8.519744571033073" width="5" fill="black"><title>human: 2</title></rect><rect x="575" y="175.21487819377873" height="17.039489142066117" width="5" fill="black"><title>cognition: 4</title></rect><rect x="0" y="0.00005541875416933648" height="8.51974457103308" width="5" fill="black"><title>enable: 2</title></rect><rect x="57.5" y="0" height="8.51974457103308" width="5" fill="black"><title>user: 2</title></rect><rect x="517.5" y="138.4824829212198" height="8.519744571033073" width="5" fill="black"><title>amplify: 2</title></rect><rect x="0" y="287.82305570346057" height="17.039489142066145" width="5" fill="black"><title>map: 4</title></rect><rect x="57.5" y="258.68440117081934" height="17.039489142066202" width="5" fill="black"><title>data: 4</title></rect><rect x="0" y="311.1137478787437" height="8.519744571033073" width="5" fill="black"><title>structure: 2</title></rect><rect x="0" y="81.10322865603952" height="8.51974457103303" width="5" fill="black"><title>geographic: 2</title></rect><rect x="172.5" y="302.5032721639664" height="8.519744571033073" width="5" fill="black"><title>technique: 2</title></rect><rect x="0" y="362.1457545728016" height="8.519744571033073" width="5" fill="black"><title>contrast: 2</title></rect><rect x="57.5" y="388.1946896939005" height="8.519744571033073" width="5" fill="black"><title>scientific: 2</title></rect><rect x="230" y="282.1986669779731" height="8.519744571033073" width="5" fill="black"><title>science: 2</title></rect><rect x="0" y="54.425481921985245" height="8.519744571033065" width="5" fill="black"><title>sensory: 2</title></rect><rect x="0" y="110.64512386453968" height="8.519744571033058" width="5" fill="black"><title>represent: 2</title></rect><rect x="0" y="376.9167021770518" height="8.519744571033073" width="5" fill="black"><title>take: 2</title></rect><rect x="57.5" y="402.9656372981505" height="8.519744571033073" width="5" fill="black"><title>advantage: 2</title></rect><rect x="57.5" y="373.4237420896503" height="8.519744571033073" width="5" fill="black"><title>screen: 2</title></rect><rect x="115" y="288.78519292683734" height="8.519744571033073" width="5" fill="black"><title>space: 2</title></rect><rect x="0" y="95.87417626028959" height="8.519744571033058" width="5" fill="black"><title>kind: 2</title></rect><rect x="172.5" y="335.8757831999553" height="8.519744571033073" width="5" fill="black"><title>coordinate: 2</title></rect><rect x="0" y="236.85798592696602" height="8.519744571033073" width="5" fill="black"><title>unstructured: 2</title></rect><rect x="0" y="391.68764978130196" height="8.519744571033073" width="5" fill="black"><title>criterion: 2</title></rect><rect x="57.5" y="417.7365849024007" height="8.519744571033073" width="5" fill="black"><title>record: 2</title></rect><rect x="0" y="406.9482649393768" height="8.519744571033073" width="5" fill="black"><title>spatial: 2</title></rect><rect x="57.5" y="432.5075325066507" height="8.519744571033073" width="5" fill="black"><title>temporal: 2</title></rect></g><g class="links" fill="none" stroke-opacity="1"><path d="M62.5,324.5738162012679C88.75,324.5738162012679,88.75,346.15486338625277,115,346.15486338625277" style="stroke-width: 85.1975px; mix-blend-mode: multiply;" stroke="#38ee9d"><title>information → visualization: 20</title></path><path d="M407.5,120.71230252786529C433.75,120.71230252786529,433.75,111.27639217349301,460,111.27639217349301" style="stroke-width: 38.3389px; mix-blend-mode: multiply;" stroke="#9b9b9b"><title>abstract → datum: 9</title></path><path d="M292.5,64.32280455832799C318.75,64.32280455832799,318.75,52.858477045976585,345,52.858477045976585" style="stroke-width: 21.2994px; mix-blend-mode: multiply;" stroke="#980e00"><title>visual → representation: 5</title></path><path d="M235,139.83378167800524C261.25,139.83378167800524,261.25,62.19286841556972,287.5,62.19286841556972" style="stroke-width: 17.0395px; mix-blend-mode: multiply;" stroke="#4df884"><title>interactive → visual: 4</title></path><path d="M177.5,207.80686511263474C203.75,207.80686511263474,203.75,137.70384553524698,230,137.70384553524698" style="stroke-width: 12.7796px; mix-blend-mode: multiply;" stroke="#ad1905"><title>use → interactive: 3</title></path><path d="M177.5,275.0913130982245C203.75,275.0913130982245,203.75,287.9405090255621,230,287.9405090255621" style="stroke-width: 12.7796px; mix-blend-mode: multiply;" stroke="#4b4ac7"><title>computer → graphic: 3</title></path><path d="M120,324.8555019586702C146.25,324.8555019586702,146.25,291.9921968452329,172.5,291.9921968452329" style="stroke-width: 8.51975px; mix-blend-mode: multiply;" stroke="#900c00"><title>visualization → infovis: 2</title></path><path d="M350,37.948924046668694C376.25,37.948924046668694,376.25,105.80274952855738,402.5,105.80274952855738" style="stroke-width: 8.51975px; mix-blend-mode: multiply;" stroke="#c3ec3c"><title>representation → abstract: 2</title></path><path d="M465,79.32735003211897C491.25,79.32735003211897,491.25,101.75008746166152,517.5,101.75008746166152" style="stroke-width: 8.51975px; mix-blend-mode: multiply;" stroke="#2f9df5"><title>datum → reinforce: 2</title></path><path d="M5,183.73465229788067C290,183.73465229788067,290,187.9944950503283,575,187.9944950503283" style="stroke-width: 8.51975px; mix-blend-mode: multiply;" stroke="#2be0b7"><title>human → cognition: 2</title></path><path d="M5,4.259927704270701C31.25,4.259927704270701,31.25,4.259872285516531,57.5,4.259872285516531" style="stroke-width: 8.51975px; mix-blend-mode: multiply;" stroke="#27b6e6"><title>enable → user: 2</title></path><path d="M465,87.84709460315204C491.25,87.84709460315204,491.25,142.74235520673633,517.5,142.74235520673633" style="stroke-width: 8.51975px; mix-blend-mode: multiply;" stroke="#2f9df5"><title>datum → amplify: 2</title></path><path d="M522.5,142.74235520673633C548.75,142.74235520673633,548.75,179.47475047929527,575,179.47475047929527" style="stroke-width: 8.51975px; mix-blend-mode: multiply;" stroke="#422f85"><title>amplify → cognition: 2</title></path><path d="M5,292.08292798897713C31.25,292.08292798897713,31.25,271.4640180273689,57.5,271.4640180273689" style="stroke-width: 8.51975px; mix-blend-mode: multiply;" stroke="#85fd59"><title>map → data: 2</title></path><path d="M5,315.3736201642603C31.25,315.3736201642603,31.25,286.2349656316191,57.5,286.2349656316191" style="stroke-width: 8.51975px; mix-blend-mode: multiply;" stroke="#f65f18"><title>structure → information: 2</title></path><path d="M5,85.36310094155606C232.5,85.36310094155606,232.5,79.32735003211897,460,79.32735003211897" style="stroke-width: 8.51975px; mix-blend-mode: multiply;" stroke="#25cdd0"><title>geographic → datum: 2</title></path><path d="M120,341.8949911007363C146.25,341.8949911007363,146.25,306.76314444948304,172.5,306.76314444948304" style="stroke-width: 8.51975px; mix-blend-mode: multiply;" stroke="#900c00"><title>visualization → technique: 2</title></path><path d="M5,366.4056268583181C31.25,366.4056268583181,31.25,392.454561979417,57.5,392.454561979417" style="stroke-width: 8.51975px; mix-blend-mode: multiply;" stroke="#4666eb"><title>contrast → scientific: 2</title></path><path d="M62.5,392.454561979417C88.75,392.454561979417,88.75,393.0134585269348,115,393.0134585269348" style="stroke-width: 8.51975px; mix-blend-mode: multiply;" stroke="#dedd32"><title>scientific → visualization: 2</title></path><path d="M177.5,264.4416323844332C203.75,264.4416323844332,203.75,286.4585392634897,230,286.4585392634897" style="stroke-width: 8.51975px; mix-blend-mode: multiply;" stroke="#4b4ac7"><title>computer → science: 2</title></path><path d="M120,307.81601281660403C146.25,307.81601281660403,146.25,205.67692896987646,172.5,205.67692896987646" style="stroke-width: 8.51975px; mix-blend-mode: multiply;" stroke="#900c00"><title>visualization → use: 2</title></path><path d="M5,58.685354207501774C175,58.685354207501774,175,37.948924046668694,345,37.948924046668694" style="stroke-width: 8.51975px; mix-blend-mode: multiply;" stroke="#ffb125"><title>sensory → representation: 2</title></path><path d="M120,316.3357573876371C146.25,316.3357573876371,146.25,264.4416323844332,172.5,264.4416323844332" style="stroke-width: 8.51975px; mix-blend-mode: multiply;" stroke="#900c00"><title>visualization → computer: 2</title></path><path d="M5,114.90499615005622C203.75,114.90499615005622,203.75,114.32249409959044,402.5,114.32249409959044" style="stroke-width: 8.51975px; mix-blend-mode: multiply;" stroke="#a4f749"><title>represent → abstract: 2</title></path><path d="M5,381.17657446256845C31.25,381.17657446256845,31.25,407.2255095836672,57.5,407.2255095836672" style="stroke-width: 8.51975px; mix-blend-mode: multiply;" stroke="#e14412"><title>take → advantage: 2</title></path><path d="M120 401.53320309796794 L125 401.53320309796794 A14.25987228551654 14.25987228551654 0 0 1 139.25987228551654 415.7930753834845 L139.25987228551654 420.7930753834845 A14.25987228551654 14.25987228551654 0 0 1 125 435.05294766900107 L110 435.05294766900107 A14.25987228551654 14.25987228551654 0 0 1 95.74012771448346 420.7930753834845 L95.74012771448346 415.7930753834845 A14.25987228551654 14.25987228551654 0 0 1 110 401.53320309796794 L115 401.53320309796794" style="stroke-width: 8.51975px; mix-blend-mode: multiply;" stroke="#900c00"><title>visualization → visualization: 2</title></path><path d="M5,300.6026725600102C31.25,300.6026725600102,31.25,377.68361437516694,57.5,377.68361437516694" style="stroke-width: 8.51975px; mix-blend-mode: multiply;" stroke="#85fd59"><title>map → screen: 2</title></path><path d="M62.5,377.68361437516694C88.75,377.68361437516694,88.75,293.0450652123539,115,293.0450652123539" style="stroke-width: 8.51975px; mix-blend-mode: multiply;" stroke="#f4c92b"><title>screen → space: 2</title></path><path d="M120,333.3752465297032C261.25,333.3752465297032,261.25,122.8422386706235,402.5,122.8422386706235" style="stroke-width: 8.51975px; mix-blend-mode: multiply;" stroke="#900c00"><title>visualization → abstract: 2</title></path><path d="M5,100.13404854580612C232.5,100.13404854580612,232.5,87.84709460315204,460,87.84709460315204" style="stroke-width: 8.51975px; mix-blend-mode: multiply;" stroke="#67fd6d"><title>kind → datum: 2</title></path><path d="M120,293.0450652123539C146.25,293.0450652123539,146.25,340.13565548547194,172.5,340.13565548547194" style="stroke-width: 8.51975px; mix-blend-mode: multiply;" stroke="#ff9721"><title>space → coordinate: 2</title></path><path d="M5,241.1178582124826C31.25,241.1178582124826,31.25,262.9442734563359,57.5,262.9442734563359" style="stroke-width: 8.51975px; mix-blend-mode: multiply;" stroke="#c72c0c"><title>unstructured → data: 2</title></path><path d="M5,395.94752206681846C31.25,395.94752206681846,31.25,421.9964571879172,57.5,421.9964571879172" style="stroke-width: 8.51975px; mix-blend-mode: multiply;" stroke="#3b82f8"><title>criterion → record: 2</title></path><path d="M5,411.20813722489345C31.25,411.20813722489345,31.25,436.7674047921674,57.5,436.7674047921674" style="stroke-width: 8.51975px; mix-blend-mode: multiply;" stroke="#ff7b1c"><title>spatial → temporal: 2</title></path></g><g><text x="66.5" y="324.57381620126796" text-anchor="start"><tspan alignment-baseline="middle" style="font-family: Arial, sans-serif; font-size: 10px; fill: black; font-weight: bold;">information</tspan></text><text x="124" y="354.67460795728596" text-anchor="start"><tspan alignment-baseline="middle" style="font-family: Arial, sans-serif; font-size: 10px; fill: black; font-weight: bold;">visualization</tspan></text><text x="398.5" y="120.71230252786529" text-anchor="end"><tspan alignment-baseline="middle" style="font-family: Arial, sans-serif; font-size: 10px; fill: black; font-weight: bold;">abstract</tspan></text><text x="456" y="102.75664760245996" text-anchor="end"><tspan alignment-baseline="middle" style="font-family: Arial, sans-serif; font-size: 10px; fill: black; font-weight: bold;">datum</tspan></text><text x="296.5" y="64.32280455832799" text-anchor="start"><tspan alignment-baseline="middle" style="font-family: Arial, sans-serif; font-size: 10px; fill: black; font-weight: bold;">visual</tspan></text><text x="341" y="48.59860476046004" text-anchor="end"><tspan alignment-baseline="middle" style="font-family: Arial, sans-serif; font-size: 10px; fill: black; font-weight: bold;">representation</tspan></text><text x="239" y="139.8337816780052" text-anchor="start"><tspan alignment-baseline="middle" style="font-family: Arial, sans-serif; font-size: 10px; fill: black; font-weight: bold;">interactive</tspan></text><text x="181.5" y="207.80686511263474" text-anchor="start"><tspan alignment-baseline="middle" style="font-family: Arial, sans-serif; font-size: 10px; fill: black; font-weight: bold;">use</tspan></text><text x="181.5" y="270.8314408127079" text-anchor="start"><tspan alignment-baseline="middle" style="font-family: Arial, sans-serif; font-size: 10px; fill: black; font-weight: bold;">computer</tspan></text><text x="239" y="287.9405090255621" text-anchor="start"><tspan alignment-baseline="middle" style="font-family: Arial, sans-serif; font-size: 10px; fill: black; font-weight: bold;">graphic</tspan></text><text x="181.5" y="291.9921968452329" text-anchor="start"><tspan alignment-baseline="middle" style="font-family: Arial, sans-serif; font-size: 10px; fill: black; font-weight: bold;">infovis</tspan></text><text x="513.5" y="101.75008746166151" text-anchor="end"><tspan alignment-baseline="middle" style="font-family: Arial, sans-serif; font-size: 10px; fill: black; font-weight: bold;">reinforce</tspan></text><text x="9" y="183.7346522978807" text-anchor="start"><tspan alignment-baseline="middle" style="font-family: Arial, sans-serif; font-size: 10px; fill: black; font-weight: bold;">human</tspan></text><text x="571" y="183.73462276481177" text-anchor="end"><tspan alignment-baseline="middle" style="font-family: Arial, sans-serif; font-size: 10px; fill: black; font-weight: bold;">cognition</tspan></text><text x="9" y="4.2599277042707095" text-anchor="start"><tspan alignment-baseline="middle" style="font-family: Arial, sans-serif; font-size: 10px; fill: black; font-weight: bold;">enable</tspan></text><text x="66.5" y="4.25987228551654" text-anchor="start"><tspan alignment-baseline="middle" style="font-family: Arial, sans-serif; font-size: 10px; fill: black; font-weight: bold;">user</tspan></text><text x="513.5" y="142.74235520673633" text-anchor="end"><tspan alignment-baseline="middle" style="font-family: Arial, sans-serif; font-size: 10px; fill: black; font-weight: bold;">amplify</tspan></text><text x="9" y="296.34280027449364" text-anchor="start"><tspan alignment-baseline="middle" style="font-family: Arial, sans-serif; font-size: 10px; fill: black; font-weight: bold;">map</tspan></text><text x="66.5" y="267.20414574185247" text-anchor="start"><tspan alignment-baseline="middle" style="font-family: Arial, sans-serif; font-size: 10px; fill: black; font-weight: bold;">data</tspan></text><text x="9" y="315.3736201642603" text-anchor="start"><tspan alignment-baseline="middle" style="font-family: Arial, sans-serif; font-size: 10px; fill: black; font-weight: bold;">structure</tspan></text><text x="9" y="85.36310094155604" text-anchor="start"><tspan alignment-baseline="middle" style="font-family: Arial, sans-serif; font-size: 10px; fill: black; font-weight: bold;">geographic</tspan></text><text x="181.5" y="306.763144449483" text-anchor="start"><tspan alignment-baseline="middle" style="font-family: Arial, sans-serif; font-size: 10px; fill: black; font-weight: bold;">technique</tspan></text><text x="9" y="366.4056268583181" text-anchor="start"><tspan alignment-baseline="middle" style="font-family: Arial, sans-serif; font-size: 10px; fill: black; font-weight: bold;">contrast</tspan></text><text x="66.5" y="392.454561979417" text-anchor="start"><tspan alignment-baseline="middle" style="font-family: Arial, sans-serif; font-size: 10px; fill: black; font-weight: bold;">scientific</tspan></text><text x="239" y="286.4585392634897" text-anchor="start"><tspan alignment-baseline="middle" style="font-family: Arial, sans-serif; font-size: 10px; fill: black; font-weight: bold;">science</tspan></text><text x="9" y="58.685354207501774" text-anchor="start"><tspan alignment-baseline="middle" style="font-family: Arial, sans-serif; font-size: 10px; fill: black; font-weight: bold;">sensory</tspan></text><text x="9" y="114.9049961500562" text-anchor="start"><tspan alignment-baseline="middle" style="font-family: Arial, sans-serif; font-size: 10px; fill: black; font-weight: bold;">represent</tspan></text><text x="9" y="381.1765744625683" text-anchor="start"><tspan alignment-baseline="middle" style="font-family: Arial, sans-serif; font-size: 10px; fill: black; font-weight: bold;">take</tspan></text><text x="66.5" y="407.2255095836671" text-anchor="start"><tspan alignment-baseline="middle" style="font-family: Arial, sans-serif; font-size: 10px; fill: black; font-weight: bold;">advantage</tspan></text><text x="66.5" y="377.6836143751668" text-anchor="start"><tspan alignment-baseline="middle" style="font-family: Arial, sans-serif; font-size: 10px; fill: black; font-weight: bold;">screen</tspan></text><text x="124" y="293.04506521235385" text-anchor="start"><tspan alignment-baseline="middle" style="font-family: Arial, sans-serif; font-size: 10px; fill: black; font-weight: bold;">space</tspan></text><text x="9" y="100.13404854580611" text-anchor="start"><tspan alignment-baseline="middle" style="font-family: Arial, sans-serif; font-size: 10px; fill: black; font-weight: bold;">kind</tspan></text><text x="181.5" y="340.13565548547183" text-anchor="start"><tspan alignment-baseline="middle" style="font-family: Arial, sans-serif; font-size: 10px; fill: black; font-weight: bold;">coordinate</tspan></text><text x="9" y="241.11785821248256" text-anchor="start"><tspan alignment-baseline="middle" style="font-family: Arial, sans-serif; font-size: 10px; fill: black; font-weight: bold;">unstructured</tspan></text><text x="9" y="395.94752206681846" text-anchor="start"><tspan alignment-baseline="middle" style="font-family: Arial, sans-serif; font-size: 10px; fill: black; font-weight: bold;">criterion</tspan></text><text x="66.5" y="421.99645718791726" text-anchor="start"><tspan alignment-baseline="middle" style="font-family: Arial, sans-serif; font-size: 10px; fill: black; font-weight: bold;">record</tspan></text><text x="9" y="411.20813722489333" text-anchor="start"><tspan alignment-baseline="middle" style="font-family: Arial, sans-serif; font-size: 10px; fill: black; font-weight: bold;">spatial</tspan></text><text x="66.5" y="436.7674047921672" text-anchor="start"><tspan alignment-baseline="middle" style="font-family: Arial, sans-serif; font-size: 10px; fill: black; font-weight: bold;">temporal</tspan></text></g></g></svg>